<svg width="294" height="220" viewBox="0 0 294 220" fill="none" xmlns="http://www.w3.org/2000/svg">
<path d="M38 127.154C72 41.6545 170 199.154 248 127.154" stroke="white" stroke-opacity="0.59"/>
<path d="M2 93.7254C2 93.7254 118 50.2254 175.5 54.2254C233 58.2254 284 93.7254 284 93.7254" stroke="white" stroke-opacity="0.59"/>
<circle cx="174" cy="97.9655" r="28.5" stroke="white" stroke-opacity="0.59"/>
<circle cx="2" cy="94" r="2" fill="white"/>
<circle cx="77" cy="70" r="3" fill="white"/>
<circle cx="160" cy="54" r="4" fill="white"/>
<circle cx="230" cy="201" r="2" fill="white"/>
<circle cx="292" cy="48" r="2" fill="white"/>
<circle cx="77" cy="201" r="2" fill="white"/>
<circle cx="24" cy="33" r="2" fill="white"/>
<circle cx="226" cy="65" r="3" fill="white"/>
<circle cx="111.5" cy="114.5" r="3.5" fill="white"/>
<circle cx="181.5" cy="144.5" r="3.5" fill="white"/>
<circle cx="153" cy="202" r="3" fill="white"/>
<circle cx="173.5" cy="3.5" r="3.5" fill="white"/>
<circle cx="174" cy="97.9655" r="10" stroke="white" stroke-width="4"/>
<circle cx="248" cy="127" r="2" fill="white"/>
<circle cx="284" cy="94" r="2" fill="white"/>
<circle cx="38" cy="127" r="2" fill="white"/>
<path d="M77 202.284C77 202.284 77.4086 239.041 153 202.284C228.591 165.527 213.455 218.24 229 202.284" stroke="white" stroke-opacity="0.59"/>
<path d="M24 32.9656C105 32.9656 129 -4.53449 191.364 5.8023C232.488 12.6185 262 41.9655 292.5 48.4655" stroke="white" stroke-opacity="0.59"/>
<path d="M174 68.9655L177.464 88.4655H170.536L174 68.9655Z" fill="white"/>
<path d="M145 97.9655L164.5 94.5014L164.5 101.43L145 97.9655Z" fill="white"/>
<path d="M203 96.9655L183.5 100.43L183.5 93.5014L203 96.9655Z" fill="white"/>
<path d="M174 126.965L170.536 107.465L177.464 107.465L174 126.965Z" fill="white"/>
<path d="M192.215 114.181L182.181 105.983L184.018 104.146L192.215 114.181Z" fill="white"/>
<path d="M157.061 81.0262L167.095 89.2237L165.258 91.0608L157.061 81.0262Z" fill="white"/>
<path d="M191.215 81.0262L183.018 91.0608L181.181 89.2237L191.215 81.0262Z" fill="white"/>
<path d="M157.061 115.181L165.258 105.146L167.095 106.983L157.061 115.181Z" fill="white"/>
</svg>
