<svg width="288" height="288" viewBox="0 0 288 288" fill="none" xmlns="http://www.w3.org/2000/svg">
<path d="M163.715 116.855C185.826 133.55 203.615 151.45 214.523 166.83C219.985 174.532 223.636 181.483 225.297 187.247C226.972 193.063 226.496 197.171 224.523 199.785C222.549 202.399 218.728 203.982 212.676 203.962C206.678 203.944 198.993 202.336 190.089 199.191C172.31 192.912 150.223 180.704 128.111 164.009C106 147.314 88.2103 129.414 77.303 114.034C71.8406 106.332 68.1898 99.3806 66.5291 93.6169C64.8533 87.8008 65.3295 83.693 67.3032 81.0789C69.277 78.4648 73.0974 76.882 79.15 76.9011C85.1482 76.9201 92.8333 78.528 101.737 81.6726C119.516 87.9516 141.603 100.159 163.715 116.855Z" stroke="#9B9A80" stroke-width="5"/>
<path d="M157.715 125.855C179.826 142.55 197.615 160.45 208.523 175.83C213.985 183.532 217.636 190.483 219.297 196.247C220.972 202.063 220.496 206.171 218.523 208.785C216.549 211.399 212.728 212.982 206.676 212.962C200.678 212.944 192.993 211.336 184.089 208.191C166.31 201.912 144.223 189.704 122.111 173.009C99.9996 156.314 82.2103 138.414 71.303 123.034C65.8406 115.332 62.1898 108.381 60.5291 102.617C58.8533 96.8008 59.3295 92.693 61.3032 90.0789C63.277 87.4648 67.0974 85.882 73.15 85.9011C79.1482 85.9201 86.8333 87.528 95.737 90.6726C113.516 96.9516 135.603 109.159 157.715 125.855Z" stroke="#9B9A80" stroke-width="5"/>
<g filter="url(#filter0_d_0_1)">
<circle cx="142.5" cy="143.5" r="62.5" transform="rotate(-26.4665 142.5 143.5)" fill="url(#paint0_linear_0_1)"/>
</g>
<g filter="url(#filter1_i_0_1)">
<circle cx="169.465" cy="159.465" r="18.5" transform="rotate(71.2484 169.465 159.465)" fill="black" fill-opacity="0.1"/>
</g>
<g filter="url(#filter2_i_0_1)">
<circle cx="124.867" cy="139.379" r="6.99058" transform="rotate(71.2484 124.867 139.379)" fill="black" fill-opacity="0.1"/>
</g>
<g filter="url(#filter3_i_0_1)">
<circle cx="135.054" cy="100.48" r="9.94234" transform="rotate(46.7027 135.054 100.48)" fill="black" fill-opacity="0.1"/>
</g>
<path d="M83 121.5C118 161 136.5 174.5 180.5 195.5" stroke="#9B9A80" stroke-width="5"/>
<path d="M79 133C114 172.5 130.5 183.5 174.5 204.5" stroke="#9B9A80" stroke-width="5"/>
<g filter="url(#filter4_d_0_1)">
<circle cx="234.5" cy="120.5" r="11.5" transform="rotate(-12.2998 234.5 120.5)" fill="url(#paint1_linear_0_1)"/>
<circle cx="234.5" cy="120.5" r="11.5" transform="rotate(-12.2998 234.5 120.5)" fill="url(#paint2_linear_0_1)" fill-opacity="0.2"/>
</g>
<g filter="url(#filter5_d_0_1)">
<circle cx="140.239" cy="52.2385" r="11.5" transform="rotate(-24.5503 140.239 52.2385)" fill="url(#paint3_linear_0_1)"/>
</g>
<g filter="url(#filter6_d_0_1)">
<circle cx="206.77" cy="59.7703" r="19.3386" transform="rotate(-11.9296 206.77 59.7703)" fill="url(#paint4_linear_0_1)"/>
<circle cx="206.77" cy="59.7703" r="19.3386" transform="rotate(-11.9296 206.77 59.7703)" fill="url(#paint5_linear_0_1)" fill-opacity="0.2"/>
</g>
<defs>
<filter id="filter0_d_0_1" x="40.5862" y="41.5862" width="203.828" height="203.828" filterUnits="userSpaceOnUse" color-interpolation-filters="sRGB">
<feFlood flood-opacity="0" result="BackgroundImageFix"/>
<feColorMatrix in="SourceAlpha" type="matrix" values="0 0 0 0 0 0 0 0 0 0 0 0 0 0 0 0 0 0 127 0" result="hardAlpha"/>
<feOffset/>
<feGaussianBlur stdDeviation="19.7"/>
<feComposite in2="hardAlpha" operator="out"/>
<feColorMatrix type="matrix" values="0 0 0 0 1 0 0 0 0 0.389167 0 0 0 0 0.389167 0 0 0 0.25 0"/>
<feBlend mode="normal" in2="BackgroundImageFix" result="effect1_dropShadow_0_1"/>
<feBlend mode="normal" in="SourceGraphic" in2="effect1_dropShadow_0_1" result="shape"/>
</filter>
<filter id="filter1_i_0_1" x="150.96" y="140.96" width="37.0101" height="40.0101" filterUnits="userSpaceOnUse" color-interpolation-filters="sRGB">
<feFlood flood-opacity="0" result="BackgroundImageFix"/>
<feBlend mode="normal" in="SourceGraphic" in2="BackgroundImageFix" result="shape"/>
<feColorMatrix in="SourceAlpha" type="matrix" values="0 0 0 0 0 0 0 0 0 0 0 0 0 0 0 0 0 0 127 0" result="hardAlpha"/>
<feOffset dy="3"/>
<feGaussianBlur stdDeviation="2"/>
<feComposite in2="hardAlpha" operator="arithmetic" k2="-1" k3="1"/>
<feColorMatrix type="matrix" values="0 0 0 0 0 0 0 0 0 0 0 0 0 0 0 0 0 0 0.25 0"/>
<feBlend mode="normal" in2="shape" result="effect1_innerShadow_0_1"/>
</filter>
<filter id="filter2_i_0_1" x="117.874" y="132.386" width="13.985" height="15.985" filterUnits="userSpaceOnUse" color-interpolation-filters="sRGB">
<feFlood flood-opacity="0" result="BackgroundImageFix"/>
<feBlend mode="normal" in="SourceGraphic" in2="BackgroundImageFix" result="shape"/>
<feColorMatrix in="SourceAlpha" type="matrix" values="0 0 0 0 0 0 0 0 0 0 0 0 0 0 0 0 0 0 127 0" result="hardAlpha"/>
<feMorphology radius="2" operator="dilate" in="SourceAlpha" result="effect1_innerShadow_0_1"/>
<feOffset dy="3"/>
<feGaussianBlur stdDeviation="2"/>
<feComposite in2="hardAlpha" operator="arithmetic" k2="-1" k3="1"/>
<feColorMatrix type="matrix" values="0 0 0 0 0 0 0 0 0 0 0 0 0 0 0 0 0 0 0.25 0"/>
<feBlend mode="normal" in2="shape" result="effect1_innerShadow_0_1"/>
</filter>
<filter id="filter3_i_0_1" x="125.112" y="90.5373" width="19.8847" height="22.8847" filterUnits="userSpaceOnUse" color-interpolation-filters="sRGB">
<feFlood flood-opacity="0" result="BackgroundImageFix"/>
<feBlend mode="normal" in="SourceGraphic" in2="BackgroundImageFix" result="shape"/>
<feColorMatrix in="SourceAlpha" type="matrix" values="0 0 0 0 0 0 0 0 0 0 0 0 0 0 0 0 0 0 127 0" result="hardAlpha"/>
<feOffset dy="3"/>
<feGaussianBlur stdDeviation="2"/>
<feComposite in2="hardAlpha" operator="arithmetic" k2="-1" k3="1"/>
<feColorMatrix type="matrix" values="0 0 0 0 0 0 0 0 0 0 0 0 0 0 0 0 0 0 0.25 0"/>
<feBlend mode="normal" in2="shape" result="effect1_innerShadow_0_1"/>
</filter>
<filter id="filter4_d_0_1" x="209.698" y="95.6976" width="49.6048" height="49.6048" filterUnits="userSpaceOnUse" color-interpolation-filters="sRGB">
<feFlood flood-opacity="0" result="BackgroundImageFix"/>
<feColorMatrix in="SourceAlpha" type="matrix" values="0 0 0 0 0 0 0 0 0 0 0 0 0 0 0 0 0 0 127 0" result="hardAlpha"/>
<feOffset/>
<feGaussianBlur stdDeviation="6.65"/>
<feComposite in2="hardAlpha" operator="out"/>
<feColorMatrix type="matrix" values="0 0 0 0 1 0 0 0 0 1 0 0 0 0 1 0 0 0 0.25 0"/>
<feBlend mode="normal" in2="BackgroundImageFix" result="effect1_dropShadow_0_1"/>
<feBlend mode="normal" in="SourceGraphic" in2="effect1_dropShadow_0_1" result="shape"/>
</filter>
<filter id="filter5_d_0_1" x="112.636" y="24.6357" width="55.2056" height="55.2056" filterUnits="userSpaceOnUse" color-interpolation-filters="sRGB">
<feFlood flood-opacity="0" result="BackgroundImageFix"/>
<feColorMatrix in="SourceAlpha" type="matrix" values="0 0 0 0 0 0 0 0 0 0 0 0 0 0 0 0 0 0 127 0" result="hardAlpha"/>
<feOffset/>
<feGaussianBlur stdDeviation="8.05"/>
<feComposite in2="hardAlpha" operator="out"/>
<feColorMatrix type="matrix" values="0 0 0 0 0.986667 0 0 0 0 0.986667 0 0 0 0 0.986667 0 0 0 0.25 0"/>
<feBlend mode="normal" in2="BackgroundImageFix" result="effect1_dropShadow_0_1"/>
<feBlend mode="normal" in="SourceGraphic" in2="effect1_dropShadow_0_1" result="shape"/>
</filter>
<filter id="filter6_d_0_1" x="170.528" y="23.5278" width="72.485" height="72.485" filterUnits="userSpaceOnUse" color-interpolation-filters="sRGB">
<feFlood flood-opacity="0" result="BackgroundImageFix"/>
<feColorMatrix in="SourceAlpha" type="matrix" values="0 0 0 0 0 0 0 0 0 0 0 0 0 0 0 0 0 0 127 0" result="hardAlpha"/>
<feOffset/>
<feGaussianBlur stdDeviation="8.45"/>
<feComposite in2="hardAlpha" operator="out"/>
<feColorMatrix type="matrix" values="0 0 0 0 0.650556 0 0 0 0 0.475834 0 0 0 0 1 0 0 0 0.25 0"/>
<feBlend mode="normal" in2="BackgroundImageFix" result="effect1_dropShadow_0_1"/>
<feBlend mode="normal" in="SourceGraphic" in2="effect1_dropShadow_0_1" result="shape"/>
</filter>
<linearGradient id="paint0_linear_0_1" x1="142.5" y1="81" x2="142.5" y2="206" gradientUnits="userSpaceOnUse">
<stop stop-color="#BE3F20"/>
<stop offset="0.811" stop-color="#002534"/>
</linearGradient>
<linearGradient id="paint1_linear_0_1" x1="234.5" y1="109" x2="234.5" y2="132" gradientUnits="userSpaceOnUse">
<stop stop-color="#B1CAFF"/>
<stop offset="0.796" stop-color="#4A4264"/>
<stop offset="0.901" stop-color="#4A4264"/>
</linearGradient>
<linearGradient id="paint2_linear_0_1" x1="248.968" y1="117.514" x2="221.416" y2="117.136" gradientUnits="userSpaceOnUse">
<stop stop-opacity="0"/>
<stop offset="0.566" stop-color="#9C430F"/>
</linearGradient>
<linearGradient id="paint3_linear_0_1" x1="140.239" y1="40.7385" x2="140.239" y2="63.7385" gradientUnits="userSpaceOnUse">
<stop stop-color="#003521"/>
<stop offset="1" stop-color="#360000"/>
</linearGradient>
<linearGradient id="paint4_linear_0_1" x1="206.77" y1="40.4317" x2="206.77" y2="79.1089" gradientUnits="userSpaceOnUse">
<stop stop-color="#424295"/>
<stop offset="1" stop-color="#1F0035"/>
</linearGradient>
<linearGradient id="paint5_linear_0_1" x1="222.382" y1="47.4612" x2="190.122" y2="74.374" gradientUnits="userSpaceOnUse">
<stop stop-color="#410808" stop-opacity="0"/>
<stop offset="0.485" stop-color="#6C3307"/>
</linearGradient>
</defs>
</svg>
