<svg width="299" height="217" viewBox="0 0 299 217" fill="none" xmlns="http://www.w3.org/2000/svg">
<path d="M41 124.154C75 38.6545 173 196.154 251 124.154" stroke="white" stroke-width="3"/>
<path d="M5 90.7254C5 90.7254 121 47.2254 178.5 51.2254C236 55.2254 287 90.7254 287 90.7254" stroke="white" stroke-width="4"/>
<circle cx="177" cy="94.9655" r="26.5" stroke="white" stroke-width="5"/>
<circle cx="7.5" cy="90.5" r="7.5" fill="white"/>
<circle cx="203" cy="93.9655" r="6" fill="white"/>
<circle cx="151" cy="94.9655" r="6" fill="white"/>
<circle cx="177" cy="68.9655" r="6" fill="white"/>
<circle cx="177" cy="120.965" r="6" fill="white"/>
<circle cx="73.5" cy="68.5" r="8.5" fill="white"/>
<circle cx="155.5" cy="50.4655" r="9.5" fill="white"/>
<circle cx="155.5" cy="50.4655" r="9.5" fill="white"/>
<circle cx="229" cy="200" r="7" fill="white"/>
<circle cx="293" cy="44" r="6" fill="white"/>
<circle cx="80.5" cy="200.5" r="7.5" fill="white"/>
<circle cx="31.5" cy="30.5" r="7.5" fill="white"/>
<circle cx="230" cy="63" r="8" fill="white"/>
<circle cx="107.5" cy="107.465" r="9.5" fill="white"/>
<circle cx="196" cy="144" r="8" fill="white"/>
<circle cx="177" cy="94.9655" r="10" stroke="white" stroke-width="4"/>
<circle cx="251" cy="124" r="6" fill="white"/>
<circle cx="287.5" cy="90.5" r="5.5" fill="white"/>
<circle cx="41.5" cy="123.5" r="6.5" fill="white"/>
<path d="M80 199.284C80 199.284 80.4086 236.041 156 199.284C231.591 162.527 216.455 215.24 232 199.284" stroke="white" stroke-width="2"/>
<path d="M27 29.9656C108 29.9656 132 -7.53449 194.364 2.8023C235.488 9.6185 265 38.9655 295.5 45.4655" stroke="white" stroke-width="2"/>
<path d="M176.015 71.5079C176.211 70.4078 177.789 70.4078 177.985 71.5079L180.255 84.2906C180.364 84.9033 179.893 85.4655 179.271 85.4655H174.729C174.107 85.4655 173.636 84.9033 173.745 84.2906L176.015 71.5079Z" fill="white"/>
<path d="M153.542 95.9501C152.442 95.7547 152.442 94.1763 153.542 93.9809L166.325 91.7101C166.938 91.6013 167.5 92.0724 167.5 92.6947L167.5 97.2363C167.5 97.8586 166.938 98.3297 166.325 98.2209L153.542 95.9501Z" fill="white"/>
<path d="M200.458 92.9809C201.558 93.1763 201.558 94.7547 200.458 94.9501L187.675 97.2209C187.062 97.3297 186.5 96.8586 186.5 96.2363L186.5 91.6947C186.5 91.0724 187.062 90.6013 187.675 90.7101L200.458 92.9809Z" fill="white"/>
<path d="M177.985 118.423C177.789 119.523 176.211 119.523 176.015 118.423L173.745 105.64C173.636 105.028 174.107 104.465 174.729 104.465L179.271 104.465C179.893 104.465 180.364 105.028 180.255 105.64L177.985 118.423Z" fill="white"/>
<path d="M195.215 111.181L185.181 102.983L187.018 101.146L195.215 111.181Z" fill="white"/>
<path d="M160.061 78.0262L170.095 86.2237L168.258 88.0608L160.061 78.0262Z" fill="white"/>
<path d="M194.215 78.0262L186.018 88.0608L184.181 86.2237L194.215 78.0262Z" fill="white"/>
<path d="M160.061 112.181L168.258 102.146L170.095 103.983L160.061 112.181Z" fill="white"/>
</svg>
