<svg width="296" height="221" viewBox="0 0 296 221" fill="none" xmlns="http://www.w3.org/2000/svg">
<path d="M40 128.154C74 42.6545 172 200.154 250 128.154" stroke="white" stroke-opacity="0.59"/>
<path d="M4 94.7254C4 94.7254 120 51.2254 177.5 55.2254C235 59.2254 286 94.7254 286 94.7254" stroke="white" stroke-opacity="0.59"/>
<circle cx="176" cy="98.9655" r="28.5" stroke="white" stroke-opacity="0.59"/>
<circle cx="4" cy="95" r="4" fill="white"/>
<circle cx="204" cy="98" r="4" fill="white"/>
<circle cx="148" cy="99" r="4" fill="white"/>
<circle cx="176" cy="71" r="4" fill="white"/>
<circle cx="176" cy="127" r="4" fill="white"/>
<circle cx="78" cy="70" r="5" fill="white"/>
<circle cx="160" cy="55" r="7" fill="white"/>
<circle cx="231" cy="204" r="4" fill="white"/>
<circle cx="292" cy="49" r="4" fill="white"/>
<circle cx="79" cy="204" r="4" fill="white"/>
<circle cx="26" cy="34" r="4" fill="white"/>
<circle cx="227" cy="65" r="5" fill="white"/>
<circle cx="115" cy="117" r="5" fill="white"/>
<circle cx="186" cy="146" r="5" fill="white"/>
<circle cx="153" cy="204" r="5" fill="white"/>
<circle cx="172" cy="5" r="5" fill="white"/>
<circle cx="176" cy="98.9655" r="10" stroke="white" stroke-width="4"/>
<circle cx="250" cy="128" r="4" fill="white"/>
<circle cx="284" cy="93" r="4" fill="white"/>
<circle cx="40" cy="128" r="4" fill="white"/>
<path d="M79 203.284C79 203.284 79.4086 240.041 155 203.284C230.591 166.527 215.455 219.24 231 203.284" stroke="white" stroke-opacity="0.59"/>
<path d="M26 33.9656C107 33.9656 131 -3.53449 193.364 6.8023C234.488 13.6185 264 42.9655 294.5 49.4655" stroke="white" stroke-opacity="0.59"/>
<path d="M175.015 75.5079C175.211 74.4078 176.789 74.4078 176.985 75.5079L179.255 88.2906C179.364 88.9033 178.893 89.4655 178.271 89.4655H173.729C173.107 89.4655 172.636 88.9033 172.745 88.2906L175.015 75.5079Z" fill="white"/>
<path d="M152.542 99.9501C151.442 99.7547 151.442 98.1763 152.542 97.9809L165.325 95.7101C165.938 95.6013 166.5 96.0724 166.5 96.6947L166.5 101.236C166.5 101.859 165.938 102.33 165.325 102.221L152.542 99.9501Z" fill="white"/>
<path d="M199.458 96.9809C200.558 97.1763 200.558 98.7547 199.458 98.9501L186.675 101.221C186.062 101.33 185.5 100.859 185.5 100.236L185.5 95.6947C185.5 95.0724 186.062 94.6013 186.675 94.7101L199.458 96.9809Z" fill="white"/>
<path d="M176.985 122.423C176.789 123.523 175.211 123.523 175.015 122.423L172.745 109.64C172.636 109.028 173.107 108.465 173.729 108.465L178.271 108.465C178.893 108.465 179.364 109.028 179.255 109.64L176.985 122.423Z" fill="white"/>
<path d="M194.215 115.181L184.181 106.983L186.018 105.146L194.215 115.181Z" fill="white"/>
<path d="M159.061 82.0262L169.095 90.2237L167.258 92.0608L159.061 82.0262Z" fill="white"/>
<path d="M193.215 82.0262L185.018 92.0608L183.181 90.2237L193.215 82.0262Z" fill="white"/>
<path d="M159.061 116.181L167.258 106.146L169.095 107.983L159.061 116.181Z" fill="white"/>
</svg>
