<svg width="302" height="219" viewBox="0 0 302 219" fill="none" xmlns="http://www.w3.org/2000/svg">
<path d="M40 125.154C74 39.6545 172 197.154 250 125.154" stroke="white" stroke-width="6"/>
<path d="M4 91.7254C4 91.7254 120 48.2254 177.5 52.2254C235 56.2254 286 91.7254 286 91.7254" stroke="white" stroke-width="6"/>
<circle cx="176" cy="95.9655" r="26" stroke="white" stroke-width="6"/>
<circle cx="9.5" cy="89.4655" r="9.5" fill="white"/>
<circle cx="202" cy="94.9655" r="6" fill="white"/>
<circle cx="150" cy="95.9655" r="6" fill="white"/>
<circle cx="176" cy="69.9655" r="6" fill="white"/>
<circle cx="176" cy="121.965" r="6" fill="white"/>
<circle cx="69.5" cy="68.4655" r="9.5" fill="white"/>
<circle cx="154.5" cy="51.4655" r="9.5" fill="white"/>
<circle cx="154.5" cy="51.4655" r="9.5" fill="white"/>
<circle cx="29.5" cy="32.4655" r="9.5" fill="white"/>
<circle cx="228.5" cy="203.466" r="7.5" fill="white"/>
<circle cx="79.5" cy="196.466" r="9.5" fill="white"/>
<circle cx="294.5" cy="46.4655" r="7.5" fill="white"/>
<circle cx="230.5" cy="63.4655" r="9.5" fill="white"/>
<circle cx="106.5" cy="108.465" r="9.5" fill="white"/>
<circle cx="191.5" cy="143.465" r="9.5" fill="white"/>
<circle cx="176" cy="95.9655" r="10" stroke="white" stroke-width="4"/>
<circle cx="249.5" cy="125.465" r="9.5" fill="white"/>
<circle cx="285.5" cy="91.4655" r="9.5" fill="white"/>
<circle cx="39.5" cy="124.465" r="9.5" fill="white"/>
<path d="M79 200.284C79 200.284 79.4086 237.041 155 200.284C230.591 163.527 215.455 216.24 231 200.284" stroke="white" stroke-width="4"/>
<path d="M26 30.9656C107 30.9656 131 -6.53449 193.364 3.8023C234.488 10.6185 264 39.9655 294.5 46.4655" stroke="white" stroke-width="3"/>
<path d="M175.015 72.5079C175.211 71.4078 176.789 71.4078 176.985 72.5079L179.255 85.2906C179.364 85.9033 178.893 86.4655 178.271 86.4655H173.729C173.107 86.4655 172.636 85.9033 172.745 85.2906L175.015 72.5079Z" fill="white"/>
<path d="M152.542 96.9501C151.442 96.7547 151.442 95.1763 152.542 94.9809L165.325 92.7101C165.938 92.6013 166.5 93.0724 166.5 93.6947L166.5 98.2363C166.5 98.8586 165.938 99.3297 165.325 99.2209L152.542 96.9501Z" fill="white"/>
<path d="M199.458 93.9809C200.558 94.1763 200.558 95.7547 199.458 95.9501L186.675 98.2209C186.062 98.3297 185.5 97.8586 185.5 97.2363L185.5 92.6947C185.5 92.0724 186.062 91.6013 186.675 91.7101L199.458 93.9809Z" fill="white"/>
<path d="M176.985 119.423C176.789 120.523 175.211 120.523 175.015 119.423L172.745 106.64C172.636 106.028 173.107 105.465 173.729 105.465L178.271 105.465C178.893 105.465 179.364 106.028 179.255 106.64L176.985 119.423Z" fill="white"/>
<path d="M194.215 112.181L184.181 103.983L186.018 102.146L194.215 112.181Z" fill="white"/>
<path d="M159.061 79.0262L169.095 87.2237L167.258 89.0608L159.061 79.0262Z" fill="white"/>
<path d="M193.215 79.0262L185.018 89.0608L183.181 87.2237L193.215 79.0262Z" fill="white"/>
<path d="M159.061 113.181L167.258 103.146L169.095 104.983L159.061 113.181Z" fill="white"/>
</svg>
