<svg width="282" height="212" viewBox="0 0 282 212" fill="none" xmlns="http://www.w3.org/2000/svg">
<circle cx="82" cy="210" r="2" fill="white"/>
<circle cx="110.5" cy="188.5" r="2.5" fill="white"/>
<circle cx="66.5" cy="150.5" r="1.5" fill="white"/>
<circle cx="2" cy="41" r="2" fill="white"/>
<circle cx="280" cy="92" r="2" fill="white"/>
<circle cx="161" cy="4" r="2" fill="white"/>
<circle cx="199.5" cy="1.5" r="1.5" fill="white"/>
<circle cx="165" cy="25" r="2" fill="white"/>
<circle cx="198.5" cy="21.5" r="1.5" fill="white"/>
<circle cx="232.5" cy="34.5" r="1.5" fill="white"/>
<circle cx="260.5" cy="60.5" r="1.5" fill="white"/>
<circle cx="44" cy="65" r="2" fill="white"/>
<circle cx="56.5" cy="106.5" r="1.5" fill="white"/>
<circle cx="49.5" cy="177.5" r="2.5" fill="white"/>
<line x1="66.4274" y1="150.259" x2="49.4274" y2="178.259" stroke="white" stroke-opacity="0.5"/>
<line x1="110.309" y1="188.393" x2="82.3089" y2="210.393" stroke="white" stroke-opacity="0.5"/>
<line x1="49.3536" y1="177.646" x2="81.3536" y2="209.646" stroke="white" stroke-opacity="0.5"/>
<line x1="66.3268" y1="149.622" x2="110.327" y2="187.622" stroke="white" stroke-opacity="0.5"/>
<line x1="56.487" y1="106.887" x2="66.487" y2="149.887" stroke="white" stroke-opacity="0.5"/>
<line x1="44.4808" y1="64.8626" x2="56.4808" y2="106.863" stroke="white" stroke-opacity="0.5"/>
<line x1="2.24807" y1="40.5659" x2="44.2481" y2="64.5659" stroke="white" stroke-opacity="0.5"/>
<line x1="279.57" y1="92.2553" x2="260.57" y2="60.2553" stroke="white" stroke-opacity="0.5"/>
<line x1="260.66" y1="60.3664" x2="232.66" y2="34.3664" stroke="white" stroke-opacity="0.5"/>
<line x1="232.826" y1="34.4687" x2="197.826" y2="21.4687" stroke="white" stroke-opacity="0.5"/>
<line x1="198.06" y1="21.4964" x2="165.06" y2="25.4964" stroke="white" stroke-opacity="0.5"/>
<line x1="161.495" y1="3.92929" x2="164.495" y2="24.9293" stroke="white" stroke-opacity="0.5"/>
<line x1="199.026" y1="1.49934" x2="160.026" y2="3.49934" stroke="white" stroke-opacity="0.5"/>
<line x1="199.499" y1="1.02497" x2="198.499" y2="21.025" stroke="white" stroke-opacity="0.5"/>
</svg>
