<svg width="382" height="401" viewBox="0 0 382 401" fill="none" xmlns="http://www.w3.org/2000/svg">
<circle cx="299" cy="7" r="2" fill="white"/>
<circle cx="281" cy="39" r="2" fill="white"/>
<circle cx="380.5" cy="352.5" r="1.5" fill="white"/>
<circle cx="319" cy="363" r="2" fill="white"/>
<circle cx="339.5" cy="399.5" r="1.5" fill="white"/>
<circle cx="376.5" cy="397.5" r="2.5" fill="white"/>
<circle cx="351" cy="342" r="2" fill="white"/>
<circle cx="208.5" cy="206.5" r="1.5" fill="white"/>
<circle cx="275.5" cy="247.5" r="1.5" fill="white"/>
<circle cx="319" cy="300" r="2" fill="white"/>
<circle cx="103.5" cy="133.5" r="1.5" fill="white"/>
<circle cx="182" cy="177" r="2" fill="white"/>
<circle cx="21.5" cy="103.5" r="1.5" fill="white"/>
<circle cx="66" cy="109" r="2" fill="white"/>
<circle cx="180" cy="60" r="2" fill="white"/>
<circle cx="88.5" cy="70.5" r="1.5" fill="white"/>
<circle cx="2" cy="81" r="2" fill="white"/>
<circle cx="361.5" cy="1.5" r="1.5" fill="white"/>
<line x1="361.048" y1="1.49768" x2="299.048" y2="7.49768" stroke="white" stroke-opacity="0.5"/>
<line x1="299.436" y1="7.24513" x2="281.436" y2="39.2451" stroke="white" stroke-opacity="0.5"/>
<line x1="362.212" y1="1.45266" x2="281.212" y2="39.4527" stroke="white" stroke-opacity="0.5"/>
<line x1="281.102" y1="39.4895" x2="180.102" y2="60.4895" stroke="white" stroke-opacity="0.5"/>
<line x1="180.055" y1="60.497" x2="89.0546" y2="70.497" stroke="white" stroke-opacity="0.5"/>
<line x1="89.0627" y1="70.4961" x2="2.06272" y2="81.496" stroke="white" stroke-opacity="0.5"/>
<line x1="21.6227" y1="104.328" x2="1.6227" y2="81.3281" stroke="white" stroke-opacity="0.5"/>
<line x1="65.9324" y1="109.495" x2="21.9324" y2="103.495" stroke="white" stroke-opacity="0.5"/>
<line x1="66.2799" y1="108.586" x2="103.28" y2="133.586" stroke="white" stroke-opacity="0.5"/>
<line x1="104.244" y1="133.563" x2="181.244" y2="176.563" stroke="white" stroke-opacity="0.5"/>
<line x1="182.372" y1="177.666" x2="208.372" y2="206.666" stroke="white" stroke-opacity="0.5"/>
<line x1="209.264" y1="206.575" x2="275.264" y2="247.575" stroke="white" stroke-opacity="0.5"/>
<line x1="276.389" y1="247.686" x2="318.389" y2="299.686" stroke="white" stroke-opacity="0.5"/>
<line x1="319.395" y1="300.694" x2="350.395" y2="340.694" stroke="white" stroke-opacity="0.5"/>
<line x1="350.271" y1="343.42" x2="319.271" y2="363.42" stroke="white" stroke-opacity="0.5"/>
<line x1="380.828" y1="353.469" x2="350.828" y2="342.469" stroke="white" stroke-opacity="0.5"/>
<line x1="376.502" y1="396.955" x2="380.502" y2="352.955" stroke="white" stroke-opacity="0.5"/>
<line x1="376.028" y1="397.499" x2="340.028" y2="399.499" stroke="white" stroke-opacity="0.5"/>
<line x1="319.44" y1="362.762" x2="339.44" y2="399.762" stroke="white" stroke-opacity="0.5"/>
</svg>
