<svg width="109" height="147" viewBox="0 0 109 147" fill="none" xmlns="http://www.w3.org/2000/svg">
<circle cx="43" cy="145" r="2" fill="white"/>
<circle cx="2.5" cy="79.5" r="2.5" fill="white"/>
<circle cx="71" cy="2" r="2" fill="white"/>
<circle cx="105" cy="106" r="2" fill="white"/>
<circle cx="60.5" cy="61.5" r="1.5" fill="white"/>
<circle cx="82" cy="22" r="2" fill="white"/>
<circle cx="59.5" cy="25.5" r="1.5" fill="white"/>
<circle cx="51.5" cy="42.5" r="2.5" fill="white"/>
<circle cx="87" cy="63" r="2" fill="white"/>
<circle cx="24.5" cy="65.5" r="1.5" fill="white"/>
<circle cx="24.5" cy="94.5" r="1.5" fill="white"/>
<circle cx="59.5" cy="119.5" r="1.5" fill="white"/>
<circle cx="74.5" cy="116.5" r="1.5" fill="white"/>
<circle cx="74.5" cy="133.5" r="1.5" fill="white"/>
<circle cx="89.5" cy="138.5" r="2.5" fill="white"/>
<circle cx="102.5" cy="131.5" r="1.5" fill="white"/>
<circle cx="106.5" cy="81.5" r="2.5" fill="white"/>
<circle cx="107.5" cy="54.5" r="1.5" fill="white"/>
<circle cx="105.5" cy="27.5" r="1.5" fill="white"/>
<circle cx="95.5" cy="12.5" r="1.5" fill="white"/>
<circle cx="44.5" cy="3.5" r="1.5" fill="white"/>
<circle cx="25" cy="41" r="2" fill="white"/>
<circle cx="29.5" cy="21.5" r="1.5" fill="white"/>
<circle cx="5.5" cy="50.5" r="1.5" fill="white"/>
<circle cx="6" cy="107" r="2" fill="white"/>
<circle cx="25.5" cy="118.5" r="2.5" fill="white"/>
<circle cx="27.5" cy="140.5" r="1.5" fill="white"/>
<circle cx="59.5" cy="138.5" r="1.5" fill="white"/>
<line x1="28.1288" y1="140.517" x2="43.1288" y2="144.517" stroke="white" stroke-opacity="0.5"/>
<line x1="43.8143" y1="144.536" x2="58.8143" y2="138.536" stroke="white" stroke-opacity="0.5"/>
<line x1="59.5" y1="120" x2="59.5" y2="138" stroke="white" stroke-opacity="0.5"/>
<line x1="59.9019" y1="119.51" x2="74.9019" y2="116.51" stroke="white" stroke-opacity="0.5"/>
<line x1="74.5" y1="116" x2="74.5" y2="134" stroke="white" stroke-opacity="0.5"/>
<line x1="74.1411" y1="133.52" x2="91.1411" y2="138.52" stroke="white" stroke-opacity="0.5"/>
<line x1="102.252" y1="131.432" x2="90.2519" y2="138.432" stroke="white" stroke-opacity="0.5"/>
<line x1="102.502" y1="131.96" x2="104.502" y2="106.96" stroke="white" stroke-opacity="0.5"/>
<line x1="106.5" y1="81.0208" x2="105.5" y2="105.021" stroke="white" stroke-opacity="0.5"/>
<line x1="107.5" y1="55.0192" x2="106.5" y2="81.0192" stroke="white" stroke-opacity="0.5"/>
<line x1="107.197" y1="54.4596" x2="86.197" y2="63.4596" stroke="white" stroke-opacity="0.5"/>
<line x1="86.9617" y1="63.4985" x2="60.9617" y2="61.4985" stroke="white" stroke-opacity="0.5"/>
<line x1="60.5528" y1="61.2236" x2="51.5528" y2="43.2236" stroke="white" stroke-opacity="0.5"/>
<line x1="51.5528" y1="41.7764" x2="59.5528" y2="25.7764" stroke="white" stroke-opacity="0.5"/>
<line x1="58.9353" y1="25.5042" x2="81.9353" y2="22.5042" stroke="white" stroke-opacity="0.5"/>
<line x1="82.1062" y1="22.5114" x2="105.106" y2="27.5114" stroke="white" stroke-opacity="0.5"/>
<line x1="105.499" y1="27.9617" x2="107.499" y2="53.9617" stroke="white" stroke-opacity="0.5"/>
<line x1="95.416" y1="12.7226" x2="105.416" y2="27.7227" stroke="white" stroke-opacity="0.5"/>
<line x1="94.8077" y1="12.4615" x2="70.8077" y2="2.46154" stroke="white" stroke-opacity="0.5"/>
<line x1="71.0185" y1="2.49966" x2="44.0185" y2="3.49966" stroke="white" stroke-opacity="0.5"/>
<line x1="44.3841" y1="3.32009" x2="29.3841" y2="21.3201" stroke="white" stroke-opacity="0.5"/>
<line x1="29.4851" y1="22.1213" x2="24.4851" y2="42.1213" stroke="white" stroke-opacity="0.5"/>
<line x1="25.214" y1="41.4519" x2="6.21404" y2="50.4519" stroke="white" stroke-opacity="0.5"/>
<line x1="25.4996" y1="41.0192" x2="24.4996" y2="67.0192" stroke="white" stroke-opacity="0.5"/>
<line x1="24.5" y1="67" x2="24.5" y2="95" stroke="white" stroke-opacity="0.5"/>
<line x1="24.4996" y1="93.98" x2="25.4996" y2="118.98" stroke="white" stroke-opacity="0.5"/>
<line x1="25.4979" y1="118.955" x2="27.4979" y2="140.955" stroke="white" stroke-opacity="0.5"/>
<line x1="5.24096" y1="107.562" x2="25.241" y2="118.562" stroke="white" stroke-opacity="0.5"/>
<line x1="5.50285" y1="108.053" x2="2.50285" y2="80.0533" stroke="white" stroke-opacity="0.5"/>
<line x1="2.50265" y1="79.9486" x2="5.50265" y2="50.9486" stroke="white" stroke-opacity="0.5"/>
</svg>
