<svg width="358" height="242" viewBox="0 0 358 242" fill="none" xmlns="http://www.w3.org/2000/svg">
<path d="M320 121C320 122.134 319.442 124.585 317.592 128.447C315.823 132.141 313.131 136.594 309.548 141.545C302.389 151.437 291.928 162.957 278.931 173.912C252.848 195.899 217.301 215 178.5 215C139.699 215 104.152 195.899 78.0688 173.912C65.0719 162.957 54.6113 151.437 47.4518 141.545C43.8688 136.594 41.1774 132.141 39.4078 128.447C37.5579 124.585 37 122.134 37 121C37 119.866 37.5579 117.415 39.4078 113.553C41.1774 109.859 43.8688 105.406 47.4518 100.455C54.6113 90.5635 65.0719 79.0432 78.0688 68.0876C104.152 46.1011 139.699 27 178.5 27C217.301 27 252.848 46.1011 278.931 68.0876C291.928 79.0432 302.389 90.5635 309.548 100.455C313.131 105.406 315.823 109.859 317.592 113.553C319.442 117.415 320 119.866 320 121Z" stroke="white" stroke-width="12"/>
<circle cx="178.5" cy="120.5" r="57.5" stroke="white" stroke-width="10"/>
<path d="M176.803 77.8641C177.35 75.918 180.11 75.92 180.654 77.8669L187.183 101.211C189.058 107.914 194.282 113.16 200.977 115.062L215.012 119.051C216.876 119.58 216.973 122.185 215.154 122.852L199.618 128.548C193.691 130.72 189.138 135.563 187.335 141.612L180.645 164.056C180.077 165.959 177.383 165.961 176.812 164.059L170.064 141.551C168.261 135.537 163.738 130.718 157.85 128.538L142.485 122.85C140.673 122.179 140.771 119.585 142.627 119.052L156.484 115.075C163.146 113.164 168.343 107.939 170.22 101.267L176.803 77.8641Z" fill="white"/>
<rect width="33.9458" height="15.3689" rx="7.68446" transform="matrix(0.666725 -0.745304 0.688756 0.724994 36.5312 177.3)" fill="white"/>
<rect width="34.5857" height="15.0721" rx="7.53607" transform="matrix(0.469783 -0.882782 0.847548 0.530718 89.3323 217.487)" fill="white"/>
<rect x="171" y="237" width="26" height="15" rx="7.5" transform="rotate(-90 171 237)" fill="white"/>
<rect width="34.5857" height="15.0721" rx="7.53607" transform="matrix(-0.469783 -0.882782 -0.847548 0.530718 266.522 217.532)" fill="white"/>
<rect width="33.9458" height="15.3689" rx="7.68446" transform="matrix(-0.666725 -0.745304 -0.688756 0.724994 319.577 177.3)" fill="white"/>
</svg>
