<svg width="499" height="500" viewBox="0 0 499 500" fill="none" xmlns="http://www.w3.org/2000/svg">
<path d="M240.276 343.698C243.689 352.472 256.67 352.5 260.115 343.739C288.593 271.302 373.195 74 449.82 74C543.673 74 -44.7836 74 50.4712 74C128.226 74 212.087 271.229 240.276 343.698Z" fill="white"/>
<path d="M246.167 375.024C247.749 372.639 251.251 372.639 252.833 375.024L258.213 383.132C258.744 383.933 259.547 384.516 260.473 384.774L269.846 387.384C272.603 388.152 273.685 391.483 271.906 393.724L265.857 401.346C265.26 402.099 264.953 403.042 264.994 404.003L265.408 413.725C265.529 416.584 262.697 418.642 260.015 417.643L250.897 414.245C249.996 413.91 249.004 413.91 248.103 414.245L238.985 417.643C236.303 418.642 233.471 416.584 233.592 413.725L234.006 404.003C234.047 403.042 233.74 402.099 233.143 401.346L227.094 393.724C225.315 391.483 226.397 388.152 229.154 387.384L238.527 384.774C239.453 384.516 240.256 383.933 240.787 383.132L246.167 375.024Z" fill="white"/>
</svg>
