<svg width="499" height="500" viewBox="0 0 499 500" fill="none" xmlns="http://www.w3.org/2000/svg">
<g clip-path="url(#clip0_0_1)">
<path d="M220.957 356.978L111.554 156.041C99.7624 134.384 115.439 108 140.097 108L358.903 108C383.561 108 399.238 134.384 387.446 156.041L278.043 356.978C265.732 379.59 233.268 379.59 220.957 356.978Z" stroke="white" stroke-width="35"/>
<path d="M236.125 153.601C242.9 144.03 257.1 144.03 263.875 153.601L273.565 167.289C275.722 170.337 278.822 172.589 282.387 173.699L298.4 178.685C309.596 182.17 313.984 195.676 306.976 205.077L296.951 218.523C294.72 221.516 293.536 225.16 293.582 228.893L293.788 245.663C293.933 257.388 282.444 265.735 271.338 261.975L255.452 256.596C251.916 255.399 248.084 255.399 244.548 256.596L228.662 261.975C217.556 265.735 206.067 257.388 206.212 245.663L206.418 228.893C206.464 225.16 205.28 221.516 203.049 218.523L193.024 205.077C186.016 195.676 190.404 182.17 201.6 178.685L217.613 173.699C221.178 172.589 224.278 170.337 226.435 167.289L236.125 153.601Z" fill="white"/>
</g>
<defs>
<clipPath id="clip0_0_1">
<rect width="499" height="500" fill="white"/>
</clipPath>
</defs>
</svg>
