<svg width="499" height="500" viewBox="0 0 499 500" fill="none" xmlns="http://www.w3.org/2000/svg">
<g clip-path="url(#clip0_0_1)">
<path d="M197.683 327.825L121.941 188.713C100.536 149.398 128.994 101.5 173.759 101.5L325.241 101.5C370.006 101.5 398.464 149.398 377.059 188.713L301.317 327.825C278.967 368.874 220.033 368.874 197.683 327.825Z" stroke="white" stroke-width="22"/>
<path d="M235.125 153.601C241.9 144.03 256.1 144.03 262.875 153.601L272.565 167.289C274.722 170.337 277.822 172.589 281.387 173.699L297.4 178.685C308.596 182.17 312.984 195.676 305.976 205.077L295.951 218.523C293.72 221.516 292.536 225.16 292.582 228.893L292.788 245.663C292.933 257.388 281.444 265.735 270.338 261.975L254.452 256.596C250.916 255.399 247.084 255.399 243.548 256.596L227.662 261.975C216.556 265.735 205.067 257.388 205.212 245.663L205.418 228.893C205.464 225.16 204.28 221.516 202.049 218.523L192.024 205.077C185.016 195.676 189.404 182.17 200.6 178.685L216.613 173.699C220.178 172.589 223.278 170.337 225.435 167.289L235.125 153.601Z" fill="white"/>
</g>
<defs>
<clipPath id="clip0_0_1">
<rect width="499" height="500" fill="white"/>
</clipPath>
</defs>
</svg>
