<svg width="358" height="242" viewBox="0 0 358 242" fill="none" xmlns="http://www.w3.org/2000/svg">
<path d="M333 121C333 122.021 332.436 124.404 330.425 128.272C328.512 131.954 325.596 136.404 321.707 141.357C313.938 151.253 302.579 162.787 288.456 173.762C260.141 195.766 221.406 215 179 215C136.594 215 97.8595 195.766 69.5445 173.762C55.421 162.787 44.0621 151.253 36.2929 141.357C32.4038 136.404 29.488 131.954 27.5747 128.272C25.5644 124.404 25 122.021 25 121C25 119.979 25.5644 117.596 27.5747 113.728C29.488 110.046 32.4038 105.596 36.2929 100.643C44.0621 90.747 55.421 79.2129 69.5445 68.2377C97.8595 46.2345 136.594 27 179 27C221.406 27 260.141 46.2345 288.456 68.2377C302.579 79.2129 313.938 90.747 321.707 100.643C325.596 105.596 328.512 110.046 330.425 113.728C332.436 117.596 333 119.979 333 121Z" stroke="white" stroke-width="12"/>
<rect x="25" y="177.3" width="35.2535" height="16" rx="8" transform="rotate(-45.8613 25 177.3)" fill="white"/>
<rect x="82.2757" y="217.487" width="35.2535" height="16" rx="8" transform="rotate(-60.0039 82.2757 217.487)" fill="white"/>
<rect x="171" y="237" width="26" height="16" rx="8" transform="rotate(-90 171 237)" fill="white"/>
<rect width="35.2535" height="16" rx="8" transform="matrix(-0.499942 -0.866059 -0.866059 0.499942 274.482 217.532)" fill="white"/>
<rect width="35.2535" height="16" rx="8" transform="matrix(-0.696398 -0.717656 -0.717656 0.696398 332.033 177.3)" fill="white"/>
<path d="M329 126.347C329 144.695 261.619 182.5 178.5 182.5C95.3811 182.5 28 144.695 28 126.347C28 108 95.3811 32 178.5 32C261.619 32 329 108 329 126.347Z" fill="white"/>
</svg>
