<svg width="358" height="242" viewBox="0 0 358 242" fill="none" xmlns="http://www.w3.org/2000/svg">
<rect width="33.9458" height="15.3689" rx="7.68446" transform="matrix(0.666725 -0.745304 0.688756 0.724994 37.5312 169.3)" fill="white"/>
<rect width="34.5857" height="15.0721" rx="7.53607" transform="matrix(0.469783 -0.882782 0.847548 0.530718 90.3322 209.487)" fill="white"/>
<rect x="172" y="229" width="26" height="15" rx="7.5" transform="rotate(-90 172 229)" fill="white"/>
<rect width="34.5857" height="15.0721" rx="7.53607" transform="matrix(-0.469783 -0.882782 -0.847548 0.530718 267.522 209.532)" fill="white"/>
<rect width="33.9458" height="15.3689" rx="7.68446" transform="matrix(-0.666725 -0.745304 -0.688756 0.724994 320.577 169.3)" fill="white"/>
<path d="M325 115.422C325 134.562 259.857 174 179.5 174C99.1426 174 34 134.562 34 115.422C34 96.2824 99.1426 17 179.5 17C259.857 17 325 96.2824 325 115.422Z" fill="white"/>
<path d="M321 113C321 114.134 320.442 116.585 318.592 120.447C316.823 124.141 314.131 128.594 310.548 133.545C303.389 143.437 292.928 154.957 279.931 165.912C253.848 187.899 218.301 207 179.5 207C140.699 207 105.152 187.899 79.0688 165.912C66.0719 154.957 55.6113 143.437 48.4518 133.545C44.8688 128.594 42.1774 124.141 40.4078 120.447C38.5579 116.585 38 114.134 38 113C38 111.866 38.5579 109.415 40.4078 105.553C42.1774 101.859 44.8688 97.4059 48.4518 92.4554C55.6113 82.5635 66.0719 71.0432 79.0688 60.0876C105.152 38.1011 140.699 19 179.5 19C218.301 19 253.848 38.1011 279.931 60.0876C292.928 71.0432 303.389 82.5635 310.548 92.4554C314.131 97.4059 316.823 101.859 318.592 105.553C320.442 109.415 321 111.866 321 113Z" stroke="white" stroke-width="12"/>
</svg>
