<svg width="500" height="500" viewBox="0 0 500 500" fill="none" xmlns="http://www.w3.org/2000/svg">
<circle cx="248" cy="250" r="124.5" stroke="white" stroke-width="27"/>
<circle cx="248" cy="250" r="66" stroke="white" stroke-width="27"/>
<rect x="274.877" y="372.826" width="48" height="47" rx="15" transform="rotate(-22.4907 274.877 372.826)" fill="white"/>
<rect x="162.795" y="102.111" width="48" height="47" rx="15" transform="rotate(-22.4907 162.795 102.111)" fill="white"/>
<rect x="180.74" y="354.442" width="48" height="47" rx="15" transform="rotate(22.5093 180.74 354.442)" fill="white"/>
<rect x="292.91" y="83.763" width="48" height="47" rx="15" transform="rotate(22.5093 292.91 83.763)" fill="white"/>
<rect x="354.442" y="319.26" width="48" height="47" rx="15" transform="rotate(-67.4907 354.442 319.26)" fill="white"/>
<rect x="83.763" y="207.09" width="48" height="47" rx="15" transform="rotate(-67.4907 83.763 207.09)" fill="white"/>
<rect x="127.174" y="274.877" width="48" height="47" rx="15" transform="rotate(67.5093 127.174 274.877)" fill="white"/>
<rect x="397.889" y="162.795" width="48" height="47" rx="15" transform="rotate(67.5093 397.889 162.795)" fill="white"/>
</svg>
