<svg width="77" height="90" viewBox="0 0 77 90" fill="none" xmlns="http://www.w3.org/2000/svg">
<path d="M36.6022 1.86405C37.1496 -0.0820343 39.9091 -0.0799789 40.4536 1.86692L46.9825 25.211C48.8571 31.9137 54.0815 37.1598 60.7764 39.0623L74.8116 43.0507C76.6754 43.5804 76.7725 46.1855 74.9533 46.8524L59.4173 52.5477C53.4909 54.7203 48.9378 59.5631 47.1346 65.6122L40.4442 88.0559C39.8768 89.9592 37.1821 89.9613 36.6118 88.0589L29.8634 65.5506C28.0603 59.5365 23.5376 54.7182 17.6496 52.5384L2.28407 46.8499C0.472585 46.1793 0.570052 43.5848 2.42675 43.0519L16.2831 39.0755C22.9451 37.1637 28.1423 31.939 30.0191 25.2671L36.6022 1.86405Z" fill="white"/>
</svg>
