<svg width="500" height="500" viewBox="0 0 500 500" fill="none" xmlns="http://www.w3.org/2000/svg">
<path d="M147.392 218.805C142.193 200.892 155.631 183 174.282 183H325.873C344.477 183 357.908 200.809 352.794 218.697L315.534 349.019C309.276 370.91 289.266 386 266.499 386H234.221C211.529 386 191.567 371.008 185.242 349.215L147.392 218.805Z" fill="white"/>
<path d="M116 148.25C116 140.104 122.604 133.5 130.75 133.5L176.389 133.5C182.801 133.5 188 128.301 188 121.889V121.889C188 114.77 193.77 109 200.889 109H298.611C305.73 109 311.5 114.77 311.5 121.889V121.889C311.5 128.301 316.699 133.5 323.111 133.5L369.25 133.5C377.396 133.5 384 140.104 384 148.25V148.25C384 156.396 377.396 163 369.25 163H130.75C122.604 163 116 156.396 116 148.25V148.25Z" fill="white"/>
</svg>
